<?xml version="1.0" encoding="UTF-8" standalone="no" ?>
<!DOCTYPE svg PUBLIC "-//W3C//DTD SVG 1.1//EN" "http://www.w3.org/Graphics/SVG/1.1/DTD/svg11.dtd">
<svg xmlns="http://www.w3.org/2000/svg" xmlns:xlink="http://www.w3.org/1999/xlink" version="1.1" width="1080" height="1080" viewBox="0 0 1080 1080" xml:space="preserve">
<desc>Created with Fabric.js 5.2.4</desc>
<defs>
</defs>
<g transform="matrix(1 0 0 1 540 540)" id="6d082fc6-b11a-4d89-b9f1-aa970dfa8062"  >
<rect style="stroke: none; stroke-width: 1; stroke-dasharray: none; stroke-linecap: butt; stroke-dashoffset: 0; stroke-linejoin: miter; stroke-miterlimit: 4; fill: rgb(255,255,255); fill-rule: nonzero; opacity: 1; visibility: hidden;" vector-effect="non-scaling-stroke"  x="-540" y="-540" rx="0" ry="0" width="1080" height="1080" />
</g>
<g transform="matrix(1 0 0 1 540 540)" id="0f26ead0-65cf-4d09-aaae-19f17fe4091e"  >
</g>
<g transform="matrix(15.71 0 0 15.71 345.71 542.56)"  >
<g style="" vector-effect="non-scaling-stroke"   >
		<g transform="matrix(1 0 0 1 0.08 0)"  >
<path style="stroke: none; stroke-width: 1; stroke-dasharray: none; stroke-linecap: butt; stroke-dashoffset: 0; stroke-linejoin: miter; stroke-miterlimit: 4; fill: rgb(120,120,135); fill-rule: nonzero; opacity: 1;" vector-effect="non-scaling-stroke"  transform=" translate(-4.58, -5.46)" d="M 6.58455 2.71978 L 6.58455 2.95779 L 8.39055 2.95779 L 8.39055 3.88178 L 6.51455 3.88178 C 6.43055 4.52578 6.24388 5.02979 5.95455 5.39379 C 5.67455 5.75779 5.26388 6.01912 4.72255 6.17778 C 4.19055 6.33645 3.48121 6.41578 2.59455 6.41578 L 2.59455 7.52178 C 2.59455 8.78179 3.14521 9.41179 4.24655 9.41179 C 5.32921 9.41179 5.87055 8.80512 5.87055 7.59179 L 7.04655 7.59179 C 7.03721 8.52512 6.78988 9.22979 6.30455 9.70579 C 5.81921 10.1818 5.12855 10.4198 4.23255 10.4198 C 3.30855 10.4198 2.60388 10.1631 2.11855 9.64979 C 1.64255 9.13645 1.40455 8.41779 1.40455 7.49378 L 1.40455 5.51979 C 2.46855 5.51979 3.25255 5.48712 3.75655 5.42179 C 4.26988 5.34712 4.64321 5.19778 4.87655 4.97379 C 5.10988 4.74045 5.25921 4.37645 5.32455 3.88178 L 0.774547 3.88178 L 0.774547 2.95779 L 5.38055 2.95779 L 5.38055 2.70579 L 5.38055 1.44578 L 0.774547 1.44578 L 0.774547 0.507785 L 8.39055 0.507785 L 8.39055 1.44578 L 6.58455 1.44578 L 6.58455 2.71978 Z" stroke-linecap="round" />
</g>
		<g transform="matrix(1 0 0 1 0 0.57)"  >
<path style="stroke: none; stroke-width: 1; stroke-dasharray: none; stroke-linecap: butt; stroke-dashoffset: 0; stroke-linejoin: miter; stroke-miterlimit: 4; fill: rgb(120,120,135); fill-rule: nonzero; opacity: 1;" vector-effect="non-scaling-stroke"  transform=" translate(-4.51, -6.04)" d="M 0.0605469 5.68779 L 8.95055 5.68779 L 8.95055 6.38778 L 0.0605469 6.38778 L 0.0605469 5.68779 Z" stroke-linecap="round" />
</g>
</g>
</g>
<g transform="matrix(15.46 0 0 15.46 600.4 539.08)"  >
<g style="" vector-effect="non-scaling-stroke"   >
		<g transform="matrix(1 0 0 1 0.07 0)"  >
<path style="stroke: none; stroke-width: 1; stroke-dasharray: none; stroke-linecap: butt; stroke-dashoffset: 0; stroke-linejoin: miter; stroke-miterlimit: 4; fill: rgb(120,120,135); fill-rule: nonzero; opacity: 1;" vector-effect="non-scaling-stroke"  transform=" translate(-13.6, -5.16)" d="M 7.66209 1.26378 L 2.74809 1.26378 L 2.74809 4.45579 C 2.96275 4.15712 3.28009 3.91445 3.70009 3.72778 C 4.12009 3.53178 4.57275 3.43378 5.05809 3.43378 C 5.83275 3.43378 6.46275 3.59712 6.94809 3.92378 C 7.43342 4.24112 7.77876 4.65645 7.98409 5.16979 C 8.19875 5.67378 8.30609 6.21045 8.30609 6.77979 C 8.30609 7.45179 8.18009 8.05379 7.92809 8.58579 C 7.67609 9.11779 7.28876 9.53779 6.76609 9.84579 C 6.25275 10.1538 5.61342 10.3078 4.84809 10.3078 C 3.86809 10.3078 3.07475 10.0558 2.46809 9.55179 C 1.86142 9.04779 1.49275 8.37579 1.36209 7.53579 L 2.60809 7.53579 C 2.72942 8.06778 2.98609 8.48312 3.37809 8.78179 C 3.77009 9.08045 4.26475 9.22979 4.86209 9.22979 C 5.59942 9.22979 6.15475 9.01045 6.52809 8.57179 C 6.90142 8.12379 7.08809 7.53579 7.08809 6.80779 C 7.08809 6.07979 6.90142 5.51978 6.52809 5.12778 C 6.15475 4.72645 5.60409 4.52578 4.87609 4.52578 C 4.38142 4.52578 3.94742 4.64712 3.57409 4.88978 C 3.21009 5.12312 2.94409 5.44512 2.77609 5.85578 L 1.57209 5.85578 L 1.57209 0.143785 L 7.66209 0.143785 L 7.66209 1.26378 Z M 9.9991 5.11378 C 9.9991 3.50845 10.2604 2.25778 10.7831 1.36178 C 11.3058 0.456451 12.2204 0.00378478 13.5271 0.00378478 C 14.8244 0.00378478 15.7344 0.456451 16.2571 1.36178 C 16.7798 2.25778 17.0411 3.50845 17.0411 5.11378 C 17.0411 6.74712 16.7798 8.01645 16.2571 8.92179 C 15.7344 9.82712 14.8244 10.2798 13.5271 10.2798 C 12.2204 10.2798 11.3058 9.82712 10.7831 8.92179 C 10.2604 8.01645 9.9991 6.74712 9.9991 5.11378 Z M 15.7811 5.11378 C 15.7811 4.30178 15.7251 3.61578 15.6131 3.05578 C 15.5104 2.48645 15.2911 2.02912 14.9551 1.68378 C 14.6284 1.33845 14.1524 1.16578 13.5271 1.16578 C 12.8924 1.16578 12.4071 1.33845 12.0711 1.68378 C 11.7444 2.02912 11.5251 2.48645 11.4131 3.05578 C 11.3104 3.61578 11.2591 4.30178 11.2591 5.11378 C 11.2591 5.95378 11.3104 6.65845 11.4131 7.22779 C 11.5251 7.79712 11.7444 8.25445 12.0711 8.59979 C 12.4071 8.94512 12.8924 9.11779 13.5271 9.11779 C 14.1524 9.11779 14.6284 8.94512 14.9551 8.59979 C 15.2911 8.25445 15.5104 7.79712 15.6131 7.22779 C 15.7251 6.65845 15.7811 5.95378 15.7811 5.11378 Z M 18.7901 5.11378 C 18.7901 3.50845 19.0515 2.25778 19.5741 1.36178 C 20.0968 0.456451 21.0115 0.00378478 22.3181 0.00378478 C 23.6155 0.00378478 24.5255 0.456451 25.0481 1.36178 C 25.5708 2.25778 25.8321 3.50845 25.8321 5.11378 C 25.8321 6.74712 25.5708 8.01645 25.0481 8.92179 C 24.5255 9.82712 23.6155 10.2798 22.3181 10.2798 C 21.0115 10.2798 20.0968 9.82712 19.5741 8.92179 C 19.0515 8.01645 18.7901 6.74712 18.7901 5.11378 Z M 24.5721 5.11378 C 24.5721 4.30178 24.5161 3.61578 24.4041 3.05578 C 24.3015 2.48645 24.0821 2.02912 23.7461 1.68378 C 23.4195 1.33845 22.9435 1.16578 22.3181 1.16578 C 21.6835 1.16578 21.1981 1.33845 20.8621 1.68378 C 20.5355 2.02912 20.3161 2.48645 20.2041 3.05578 C 20.1015 3.61578 20.0501 4.30178 20.0501 5.11378 C 20.0501 5.95378 20.1015 6.65845 20.2041 7.22779 C 20.3161 7.79712 20.5355 8.25445 20.8621 8.59979 C 21.1981 8.94512 21.6835 9.11779 22.3181 9.11779 C 22.9435 9.11779 23.4195 8.94512 23.7461 8.59979 C 24.0821 8.25445 24.3015 7.79712 24.4041 7.22779 C 24.5161 6.65845 24.5721 5.95378 24.5721 5.11378 Z" stroke-linecap="round" />
</g>
		<g transform="matrix(1 0 0 1 0 0.88)"  >
<path style="stroke: none; stroke-width: 1; stroke-dasharray: none; stroke-linecap: butt; stroke-dashoffset: 0; stroke-linejoin: miter; stroke-miterlimit: 4; fill: rgb(120,120,135); fill-rule: nonzero; opacity: 1;" vector-effect="non-scaling-stroke"  transform=" translate(-13.53, -6.04)" d="M 0.340088 5.68779 L 26.7141 5.68779 L 26.7141 6.38778 L 0.340088 6.38778 L 0.340088 5.68779 Z" stroke-linecap="round" />
</g>
</g>
</g>
</svg>