<svg width="32" height="11" viewBox="0 0 32 11" fill="none" xmlns="http://www.w3.org/2000/svg">
<path d="M7.266 0.451785V2.36979H3.262V4.44178H6.258V6.30379H3.262V10.2798H0.868V0.451785H7.266ZM13.5363 10.2798L11.4923 6.56978H10.9183V10.2798H8.52425V0.451785H12.5423C13.3169 0.451785 13.9749 0.587118 14.5163 0.857785C15.0669 1.12845 15.4776 1.50178 15.7483 1.97778C16.0189 2.44445 16.1543 2.96712 16.1543 3.54578C16.1543 4.19912 15.9676 4.78245 15.5943 5.29579C15.2303 5.80912 14.6889 6.17312 13.9703 6.38778L16.2383 10.2798H13.5363ZM10.9183 4.87579H12.4023C12.8409 4.87579 13.1676 4.76845 13.3823 4.55379C13.6063 4.33912 13.7183 4.03578 13.7183 3.64378C13.7183 3.27045 13.6063 2.97645 13.3823 2.76179C13.1676 2.54712 12.8409 2.43979 12.4023 2.43979H10.9183V4.87579ZM20.0511 2.36979V4.35779H23.2571V6.20579H20.0511V8.36179H23.6771V10.2798H17.6571V0.451785H23.6771V2.36979H20.0511ZM27.6253 2.36979V4.35779H30.8313V6.20579H27.6253V8.36179H31.2513V10.2798H25.2313V0.451785H31.2513V2.36979H27.6253Z" fill="#02A401"/>
</svg>
